[Header]
FileType HTR
DataType HTRS
FileVersion 1
NumSegments 28
NumFrames 5
DataFrameRate 24
EulerRotationOrder ZYX
CalibrationUnits mm
RotationUnits Degrees
GlobalAxisofGravity Y
BoneLengthAxis Y
ScaleFactor 1.0
[SegmentNames&Hierarchy]
waist	GLOBAL
chest	waist
head	chest
joint2	chest
right_shoulder1	joint2
right_elbow1	right_shoulder1
right_wrist1	right_elbow1
right_hand1	right_wrist1
right_finger3	right_hand1
right_finger4	right_hand1
right_finger5	right_hand1
joint3	chest
right_shoulder2	joint3
right_elbow2	right_shoulder2
right_wrist2	right_elbow2
right_hand2	right_wrist2
right_finger6	right_hand2
right_finger7	right_hand2
right_finger8	right_hand2
Center_pelvis	waist
left_pelvs	Center_pelvis
left_leg	left_pelvs
left_knee	left_leg
left_foot	left_knee
right_pelvis	Center_pelvis
right_leg	right_pelvis
right_knee	right_leg
right_foot	right_knee
[BasePosition]
waist	0	0	0	179.9999991	0	91.33221985	1
chest	0	0	0	-2.307808268e-010	-1.984983424e-008	1.332219854	1
head	0	0	0	180	-1.481061187e-024	90	1
joint2	0	0	0	4.615476202e-010	-1.707085745e-006	90	1
right_shoulder1	0	0	0	1.916575325e-008	-1.983803253e-008	-88.02506599	1
right_elbow1	0	0	0	-180	-1.948815659e-008	-12.92899665	1
right_wrist1	0	0	0	3.256551172e-010	1.942478841e-008	1.920938916	1
right_hand1	0	0	0	136.2194085	85.17676588	-133.4832578	1
right_finger3	0	0	0	154.4596717	79.84057755	147.6247455	1
right_finger4	0	0	0	154.4596717	79.84057755	147.6247455	1
right_finger5	0	0	0	154.4596717	79.84057755	147.6247455	1
joint3	0	0	0	-180	-1.89575832e-022	90	1
right_shoulder2	0	0	0	6.774897105e-015	-7.012540931e-015	-88.02506599	1
right_elbow2	0	0	0	-180	-6.888863384e-015	-12.92899665	1
right_wrist2	0	0	0	-1.240805042e-012	-7.401196581e-011	1.920938916	1
right_hand2	0	0	0	136.2194085	85.17676588	-133.4832578	1
right_finger6	0	0	0	154.4596717	79.84057755	147.6247455	1
right_finger7	0	0	0	154.4596717	79.84057755	147.6247455	1
right_finger8	0	0	0	154.4596717	79.84057755	147.6247455	1
Center_pelvis	0	0	0	-180	-8.537716493e-007	89.87586122	1
left_pelvs	0	0	0	0	0	-1.456358634	1
left_leg	0	0	0	179.9999991	0	88.69804733	1
left_knee	0	0	0	-180	-7.863991589e-009	-2.076172838	1
left_foot	0	0	0	179.9999985	-3.055580289e-010	-90.77422016	1
right_pelvis	0	0	0	0	0	-2.39554958	1
right_leg	0	0	0	0	0	-87.75885638	1
right_knee	0	0	0	179.9999991	3.702652968e-022	-2.076172838	1
right_foot	0	0	0	180	-7.405305937e-025	-90.77422016	1
[waist]
1	0	-3.152148962	0	1.823863029	-13.80161953	1.340749979	1.0
2	0	-3.152148962	0	1.823863029	-13.80161953	1.340749979	1.0
3	0	-3.152148962	0	1.823863029	-13.80161953	1.340749979	1.0
4	0	-3.152148962	0	1.823863029	-13.80161953	1.340749979	1.0
5	0	-3.152148962	0	1.823863029	-13.80161953	1.340749979	1.0
[chest]
1	22.8176403	-0.5289952159	-13.18645954	21.55998993	29.87947083	-2.72970295	1.0
2	22.47442055	-0.5232592821	-13.00808811	19.60454369	29.64713097	-2.737478018	1.0
3	21.6781311	-0.5099516511	-12.59425545	15.06781197	29.10809326	-2.755517006	1.0
4	20.69682312	-0.4935519695	-12.08426857	9.476969719	28.44381142	-2.777747393	1.0
5	19.78392029	-0.4782954454	-11.60983181	4.275845528	27.82583427	-2.798428059	1.0
[head]
1	20.62318993	0.1433748007	1.49219501	-14.59230042	-1.359207034	-1.093142033	1.0
2	20.62318993	0.1433748007	1.49219501	-13.27135181	-1.359207034	-1.093142033	1.0
3	20.62318993	0.1433748007	1.49219501	-10.20668125	-1.359207034	-1.093142033	1.0
4	20.62318993	0.1433748007	1.49219501	-6.429934978	-1.359207034	-1.093142033	1.0
5	20.62318993	0.1433748007	1.49219501	-2.916453123	-1.359207034	-1.093142033	1.0
[joint2]
1	-1.657010078	17.01290894	0.01287616976	12.96341991	0	0	1.0
2	-1.657010078	17.01290894	0.01287616976	10.5497427	-0.04675596952	-0.07862063497	1.0
3	-1.657010078	17.01290894	0.01287616976	4.94988966	-0.155232206	-0.2610245645	1.0
4	-1.657010078	17.01290894	0.01287616976	-1.951091528	-0.2889129221	-0.4858100414	1.0
5	-1.657010078	17.01290894	0.01287616976	-8.371027946	-0.4132751822	-0.6949264407	1.0
[right_shoulder1]
1	14.91590023	0.6211000085	0.9477797747	-3.654457092	5.970775127	-14.66802025	1.0
2	14.91590023	0.6211000085	0.9477797747	-3.489048004	4.253125191	-14.00411129	1.0
3	14.91590023	0.6211000085	0.9477797747	-3.105289936	0.2680902481	-12.46380901	1.0
4	14.91590023	0.6211000085	0.9477797747	-2.63236618	-4.642868519	-10.56561852	1.0
5	14.91590023	0.6211000085	0.9477797747	-2.192407846	-9.211500168	-8.799744606	1.0
[right_elbow1]
1	-13.64346027	1.083028078	-0.5017899871	4.903915882	22.01849937	0.2303846031	1.0
2	-13.64346027	1.083028078	-0.5017899871	4.903915882	22.01849937	0.2303846031	1.0
3	-13.64346027	1.083028078	-0.5017899871	4.903915882	22.01849937	0.2303846031	1.0
4	-13.64346027	1.083028078	-0.5017899871	4.903915882	22.01849937	0.2303846031	1.0
5	-13.64346027	1.083028078	-0.5017899871	4.903915882	22.01849937	0.2303846031	1.0
[right_wrist1]
1	-11.07324982	0.004849368241	0.6145499945	3.809551954	11.41499043	7.834974766	1.0
2	-11.07324982	0.004849368241	0.6145499945	3.19454813	11.8245697	5.923548222	1.0
3	-11.07324982	0.004849368241	0.6145499945	1.767707109	12.77481174	1.488940954	1.0
4	-11.07324982	0.004849368241	0.6145499945	0.009339626878	13.9458437	-3.97604847	1.0
5	-11.07324982	0.004849368241	0.6145499945	-1.62645793	15.03524685	-9.060091019	1.0
[right_hand1]
1	-7.870647907	-0.6475094557	0.1588414907	5.372437954	29.75945091	17.09375	1.0
2	-7.870647907	-0.6475094557	0.1588414907	6.182024956	29.35365486	17.38520622	1.0
3	-7.870647907	-0.6475094557	0.1588414907	8.060308456	28.41218376	18.06139565	1.0
4	-7.870647907	-0.6475094557	0.1588414907	10.37501144	27.25196457	18.894701	1.0
5	-7.870647907	-0.6475094557	0.1588414907	12.52836323	26.17261887	19.66991997	1.0
[right_finger3]
1	10.07660961	3.347558022	-1.489187002	-84.28975677	13.1826601	87.76701355	1.0
2	10.07660961	3.347558022	-1.489187002	-84.28975677	13.1826601	87.76701355	1.0
3	10.07660961	3.347558022	-1.489187002	-84.28975677	13.1826601	87.76701355	1.0
4	10.07660961	3.347558022	-1.489187002	-84.28975677	13.1826601	87.76701355	1.0
5	10.07660961	3.347558022	-1.489187002	-84.28975677	13.1826601	87.76701355	1.0
[right_finger4]
1	-1.201135993	3.376283169	11.27150059	-190.2575073	16.25144958	124.4265976	1.0
2	-1.201135993	3.376283169	11.27150059	-190.2575073	16.25144958	124.4265976	1.0
3	-1.201135993	3.376283169	11.27150059	-190.2575073	16.25144958	124.4265976	1.0
4	-1.201135993	3.376283169	11.27150059	-190.2575073	16.25144958	124.4265976	1.0
5	-1.201135993	3.376283169	11.27150059	-190.2575073	16.25144958	124.4265976	1.0
[right_finger5]
1	-6.853637218	4.493112087	-5.936322212	34.39846039	4.028532028	79.4876709	1.0
2	-6.853637218	4.493112087	-5.936322212	34.39846039	4.028532028	79.4876709	1.0
3	-6.853637218	4.493112087	-5.936322212	34.39846039	4.028532028	79.4876709	1.0
4	-6.853637218	4.493112087	-5.936322212	34.39846039	4.028532028	79.4876709	1.0
5	-6.853637218	4.493112087	-5.936322212	34.39846039	4.028532028	79.4876709	1.0
[joint3]
1	-1.657010078	-17.01288986	0.01287566032	-40.36328888	-1.033435941	-1.737081051	1.0
2	-1.657010078	-17.01288986	0.01287566032	-37.94961929	-0.9866601825	-1.658456802	1.0
3	-1.657010078	-17.01288986	0.01287566032	-32.34977341	-0.8781381845	-1.476044297	1.0
4	-1.657010078	-17.01288986	0.01287566032	-25.44880676	-0.7444009781	-1.25124824	1.0
5	-1.657010078	-17.01288986	0.01287566032	-19.02888489	-0.6199862361	-1.042122126	1.0
[right_shoulder2]
1	-14.91590023	-0.6211000085	-0.9477797747	0	-31.97780037	0	1.0
2	-14.91590023	-0.6211000085	-0.9477797747	-0.1653884649	-30.26015091	-0.6639076471	1.0
3	-14.91590023	-0.6211000085	-0.9477797747	-0.5490981936	-26.27511215	-2.20420742	1.0
4	-14.91590023	-0.6211000085	-0.9477797747	-1.021962881	-21.36415291	-4.102396011	1.0
5	-14.91590023	-0.6211000085	-0.9477797747	-1.461865783	-16.79552078	-5.86826849	1.0
[right_elbow2]
1	13.64346027	-1.083028078	0.5017899871	7.431889057	27.58552933	1.157387018	1.0
2	13.58620071	-0.9802359939	0.5982438922	7.431889057	27.58552933	1.157387018	1.0
3	13.45335865	-0.7417532802	0.822021842	7.431889057	27.58552933	1.157387018	1.0
4	13.28964996	-0.4478589296	1.097794533	7.431889057	27.58552933	1.157387018	1.0
5	13.13735104	-0.1744511127	1.35434413	7.431889057	27.58552933	1.157387018	1.0
[right_wrist2]
1	11.3734808	-5.659012794	-0.5602906942	-9.777693748	20.46431923	-34.39455032	1.0
2	11.3734808	-5.659012794	-0.5602906942	-9.162683487	20.05472565	-32.48314285	1.0
3	11.3734808	-5.659012794	-0.5602906942	-7.735827446	19.10444832	-28.04857826	1.0
4	11.3734808	-5.659012794	-0.5602906942	-5.977441311	17.9333744	-22.58364487	1.0
5	11.3734808	-5.659012794	-0.5602906942	-4.341627121	16.8439312	-17.49965477	1.0
[right_hand2]
1	8.313047409	0.02588134073	-0.2132965922	23.25933075	20.79361916	23.5333004	1.0
2	8.313047409	0.02588134073	-0.2132965922	22.44970894	21.19941521	23.24184227	1.0
3	8.313047409	0.02588134073	-0.2132965922	20.57134438	22.14087486	22.56564713	1.0
4	8.313047409	0.02588134073	-0.2132965922	18.2565403	23.30108833	21.73233604	1.0
5	8.313047409	0.02588134073	-0.2132965922	16.1030941	24.38042641	20.95711327	1.0
[right_finger6]
1	-10.07660961	-3.347558022	1.489187002	-83.6856308	28.25860023	89.45963287	1.0
2	-10.07660961	-3.347558022	1.489187002	-83.6856308	28.25860023	89.45963287	1.0
3	-10.07660961	-3.347558022	1.489187002	-83.6856308	28.25860023	89.45963287	1.0
4	-10.07660961	-3.347558022	1.489187002	-83.6856308	28.25860023	89.45963287	1.0
5	-10.07660961	-3.347558022	1.489187002	-83.6856308	28.25860023	89.45963287	1.0
[right_finger7]
1	1.201135993	-3.376283169	-11.27150059	-196.8155975	9.285179138	95.4122467	1.0
2	1.201135993	-3.376283169	-11.27150059	-196.8155975	9.285179138	95.4122467	1.0
3	1.201135993	-3.376283169	-11.27150059	-196.8155975	9.285179138	95.4122467	1.0
4	1.201135993	-3.376283169	-11.27150059	-196.8155975	9.285179138	95.4122467	1.0
5	1.201135993	-3.376283169	-11.27150059	-196.8155975	9.285179138	95.4122467	1.0
[right_finger8]
1	6.853637218	-4.493112087	5.936322212	33.30503082	-9.988982201	100.1356964	1.0
2	6.853637218	-4.493112087	5.936322212	33.30503082	-9.988982201	100.1356964	1.0
3	6.853637218	-4.493112087	5.936322212	33.30503082	-9.988982201	100.1356964	1.0
4	6.853637218	-4.493112087	5.936322212	33.30503082	-9.988982201	100.1356964	1.0
5	6.853637218	-4.493112087	5.936322212	33.30503082	-9.988982201	100.1356964	1.0
[Center_pelvis]
1	-5.61697197	-0.3765999973	2.046987057	0	0	0	1.0
2	-5.61697197	-0.3765999973	2.046987057	0	0	0	1.0
3	-5.61697197	-0.3765999973	2.046987057	0	0	0	1.0
4	-5.61697197	-0.3765999973	2.046987057	0	0	0	1.0
5	-5.61697197	-0.3765999973	2.046987057	0	0	0	1.0
[left_pelvs]
1	11.08985996	-0.01586684026	-0.09214995801	-9.994826317	0	0	1.0
2	11.08985996	-0.01586684026	-0.09214995801	-9.162052155	-0.04083815217	-1.501359105	1.0
3	11.08985996	-0.01586684026	-0.09214995801	-7.229975224	-0.1355847716	-4.9845891	1.0
4	11.08985996	-0.01586684026	-0.09214995801	-4.84897995	-0.2523457706	-9.277148247	1.0
5	11.08985996	-0.01586684026	-0.09214995801	-2.63395524	-0.3609677255	-13.27048779	1.0
[left_leg]
1	8.450808053e-008	-5.682914734	0.3641465902	0	-51.82529068	0	1.0
2	8.450808053e-008	-5.682914734	0.3641465902	0	-45.3229599	-1.674016476	1.0
3	8.450808053e-008	-5.682914734	0.3641465902	0	-30.23722076	-5.55782032	1.0
4	8.450808053e-008	-5.682914734	0.3641465902	0	-11.64630508	-10.34402752	1.0
5	8.450808053e-008	-5.682914734	0.3641465902	0	5.648695469	-14.79660225	1.0
[left_knee]
1	-10.6974802	0.03457061946	-6.811455844e-009	37.05981064	-40.48847961	-5.76624918	1.0
2	-10.6974802	0.03457061946	-6.811455844e-009	33.41771698	-36.50942993	-5.199564457	1.0
3	-10.6974802	0.03457061946	-6.811455844e-009	24.96787071	-27.27782822	-3.884827375	1.0
4	-10.6974802	0.03457061946	-6.811455844e-009	14.55470562	-15.90126514	-2.264611006	1.0
5	-10.6974802	0.03457061946	-6.811455844e-009	4.867406368	-5.317724228	-0.75733459	1.0
[left_foot]
1	-14.54718971	-0.01193540078	1.933258886e-009	-10.61419964	31.93103981	-11.63099003	1.0
2	-14.54718971	-0.01193540078	1.933258886e-009	-9.571077347	28.7929821	-10.48794174	1.0
3	-14.54718971	-0.01193540078	1.933258886e-009	-7.150980473	21.51252556	-7.836010456	1.0
4	-14.54718971	-0.01193540078	1.933258886e-009	-4.168573856	12.54045486	-4.567903519	1.0
5	-14.54718971	-0.01193540078	1.933258886e-009	-1.394060493	4.193797112	-1.527604938	1.0
[right_pelvis]
1	-10.58689976	0.4465442896	0.2088862956	8.282813072	0	0	1.0
2	-10.58689976	0.4465442896	0.2088862956	8.624979973	-0.003654393135	-1.568097472	1.0
3	-10.58689976	0.4465442896	0.2088862956	9.418824196	-0.01213277318	-5.20616436	1.0
4	-10.58689976	0.4465442896	0.2088862956	10.39711761	-0.02258110419	-9.689536095	1.0
5	-10.58689976	0.4465442896	0.2088862956	11.3072176	-0.03230112046	-13.86038685	1.0
[right_leg]
1	0.09169664979	-5.593488693	0.06310816854	0	49.47127914	0	1.0
2	0.09169664979	-5.593488693	0.06310816854	0	46.1955452	0	1.0
3	0.09169664979	-5.593488693	0.06310816854	0	38.59568024	0	1.0
4	0.09169664979	-5.593488693	0.06310816854	0	29.22998428	0	1.0
5	0.09169664979	-5.593488693	0.06310816854	0	20.51713943	0	1.0
[right_knee]
1	10.69750977	-0.03459575027	-4.718447855e-015	0	-4.271131039	0	1.0
2	10.69750977	-0.03459575027	-4.718447855e-015	2.286533117	-8.377760887	-1.335837603	1.0
3	10.69750977	-0.03459575027	-4.718447855e-015	7.591407776	-17.90535355	-4.435049534	1.0
4	10.69750977	-0.03459575027	-4.718447855e-015	14.12887001	-29.64668274	-8.25436306	1.0
5	10.69750977	-0.03459575027	-4.718447855e-015	20.2106266	-40.56956482	-11.80744648	1.0
[right_foot]
1	14.54718971	0.01191106997	1.774880104e-010	11.55060005	0	0	1.0
2	14.54718971	0.01191106997	1.774880104e-010	7.893558025	1.445271015	-0.5264459252	1.0
3	14.54718971	0.01191106997	1.774880104e-010	-0.5909692645	4.798374176	-1.747827411	1.0
4	14.54718971	0.01191106997	1.774880104e-010	-11.04687595	8.930570602	-3.252996922	1.0
5	14.54718971	0.01191106997	1.774880104e-010	-20.77393532	12.77472496	-4.653246403	1.0
[EndOfFile]
